<svg>
  <defs>
    <symbol xmlns="http://www.w3.org/2000/svg" id="Logotype" fill="#fff" viewBox="0 0 154 24">
      <path d="M29.904 12.915c0-4.932 3.244-7.794 6.971-7.794.83.006 1.65.18 2.413.51.762.33 1.451.812 2.025 1.416l-1.754 2.16a3.702 3.702 0 0 0-2.581-1.183c-2.048 0-3.626 1.795-3.626 4.815 0 3.02 1.414 4.815 3.571 4.815a3.849 3.849 0 0 0 2.888-1.376l1.762 2.112a6.08 6.08 0 0 1-2.143 1.64 6.037 6.037 0 0 1-2.636.548c-3.762-.035-6.89-2.656-6.89-7.663ZM42.44 14.607c0-3.666 2.6-5.936 5.298-5.936 3.202 0 4.779 2.345 4.779 5.434a7.92 7.92 0 0 1-.137 1.486h-6.752c.092.697.446 1.332.988 1.774.542.443 1.231.66 1.927.606a4.646 4.646 0 0 0 2.43-.743l1.1 2.022a7.24 7.24 0 0 1-3.987 1.28c-3.202.013-5.646-2.174-5.646-5.923Zm7.244-1.238c0-1.245-.54-2.14-1.871-2.14-1.052 0-1.96.689-2.185 2.14h4.056ZM53.882 8.946h2.732l.225 1.458h.082a5.13 5.13 0 0 1 3.612-1.706c2.444 0 3.488 1.74 3.488 4.568v7.002H60.69v-6.604c0-1.623-.43-2.139-1.366-2.139-.84 0-1.365.4-2.048 1.1v7.643h-3.394V8.946ZM66.841 16.148V11.58h-1.536V9.076l1.72-.13.39-3.006h2.731v3.006h2.731v2.634h-2.731v4.533c0 1.28.58 1.796 1.454 1.796a3.452 3.452 0 0 0 1.072-.214l.526 2.436a7.825 7.825 0 0 1-2.499.412c-2.758 0-3.858-1.768-3.858-4.395ZM74.612 8.946h2.73l.24 1.981h.081c.82-1.513 2.049-2.256 3.189-2.256.466-.027.932.05 1.365.227l-.587 2.882a4.702 4.702 0 0 0-1.215-.179c-.847 0-1.878.55-2.479 2.064v6.562h-3.325V8.946ZM82.476 17.125c0-2.387 1.878-3.674 6.323-4.127a1.58 1.58 0 0 0-.504-1.242 1.553 1.553 0 0 0-1.272-.396 6.115 6.115 0 0 0-2.935 1.005L82.9 10.164a9.114 9.114 0 0 1 4.779-1.493c2.874 0 4.465 1.65 4.465 5.124v6.473h-2.731l-.239-1.162h-.082a4.926 4.926 0 0 1-3.27 1.437 3.213 3.213 0 0 1-2.418-.969 3.262 3.262 0 0 1-.928-2.45Zm6.323-.145V15c-2.363.322-3.134 1.003-3.134 1.856 0 .73.491 1.087 1.283 1.087a2.505 2.505 0 0 0 1.85-.963ZM94.473 16.746V4.282h3.332v12.602c0 .688.328.95.6.95.139.004.277-.012.41-.049l.396 2.476c-.533.205-1.102.301-1.672.282-2.28 0-3.066-1.506-3.066-3.797ZM102.045 4.736h2.362l2.956 8.303c.369 1.059.724 2.153 1.093 3.233h.095c.369-1.08.683-2.174 1.065-3.233l2.922-8.303h2.363v15.532h-1.823v-8.55c0-1.376.15-3.22.246-4.595h-.096l-1.222 3.542-2.902 8.035h-1.297l-2.915-8.034-1.223-3.543h-.095c.096 1.376.246 3.24.246 4.595v8.55h-1.775V4.736ZM117.844 16.052V8.767h1.932v7.037c0 2.14.649 3.054 2.157 3.054 1.168 0 1.974-.578 3.052-1.933V8.767h1.933v11.501h-1.591l-.164-1.802h-.068c-1.059 1.252-2.199 2.064-3.762 2.064-2.424.02-3.489-1.541-3.489-4.479ZM129.04 18.954l.949-1.279a5.141 5.141 0 0 0 3.373 1.376c1.495 0 2.239-.805 2.239-1.789 0-1.183-1.365-1.706-2.608-2.18-1.597-.585-3.414-1.376-3.414-3.323 0-1.836 1.462-3.26 3.933-3.26a5.797 5.797 0 0 1 3.55 1.286l-.921 1.252a4.297 4.297 0 0 0-2.608-1.025c-1.434 0-2.096.77-2.096 1.651 0 1.094 1.235 1.506 2.533 1.995 1.645.626 3.482 1.3 3.482 3.487 0 1.864-1.475 3.44-4.165 3.44a6.84 6.84 0 0 1-4.247-1.63ZM139.322 5.142c.066-.307.234-.583.477-.78a1.36 1.36 0 0 1 2.193.78 1.377 1.377 0 0 1-.477.78 1.36 1.36 0 0 1-2.193-.78Zm.355 3.625h1.926v11.501h-1.926V8.767ZM144.17 14.531c0-3.838 2.574-6.046 5.462-6.046a4.761 4.761 0 0 1 3.339 1.376l-.997 1.231a3.286 3.286 0 0 0-2.26-1.018c-2.048 0-3.584 1.795-3.584 4.43 0 2.634 1.434 4.395 3.53 4.395a4.12 4.12 0 0 0 2.703-1.114l.833 1.3a5.518 5.518 0 0 1-3.686 1.465c-3.059 0-5.34-2.208-5.34-6.019ZM0 12.027a11.993 11.993 0 0 0 3.018 7.992 11.786 11.786 0 0 0 15.755 1.734 11.948 11.948 0 0 0 4.66-7.146H20.29a.579.579 0 0 0-.286.151c-.23.234-.435.49-.615.764a.534.534 0 0 1-.505.268c-.246 0-.498 0-.765.035v1.031c.191.062.396.117.594.193a.452.452 0 0 1 .287.523c0 .254 0 .516-.273.64a2.711 2.711 0 0 1-2.048 0 .438.438 0 0 1-.28-.496c0-.261-.055-.55.273-.688.205-.075.41-.137.621-.206v-.963l-3.373.158v.846l.09.041c.737.22.62.358.593 1.025 0 .117-.191.276-.328.338a2.035 2.035 0 0 1-1.502 0c-.41-.138-.348-.475-.361-.792a.49.49 0 0 1 .396-.509c.098-.04.198-.074.3-.103v-.825l-3.284.151v.688l.218.062c.758.2.642.371.615.97 0 .117-.15.268-.266.323a2.503 2.503 0 0 1-1.967 0c-.334-.13-.266-.426-.28-.688a.443.443 0 0 1 .3-.481c.185-.076.37-.124.567-.186v-.62l-3.973.194V7.653l3.973.192v-.619c-.198-.062-.382-.11-.566-.186a.437.437 0 0 1-.3-.481c0-.268-.055-.564.28-.688a2.476 2.476 0 0 1 1.966 0c.116.055.266.206.266.316 0 .606.143.778-.615.977l-.218.062v.688l3.284.151V7.24l-.3-.103a.484.484 0 0 1-.396-.51c0-.323-.048-.653.361-.79a2.034 2.034 0 0 1 1.502 0c.137.062.321.22.328.337 0 .688.144.798-.594 1.025l-.089.04v.847l3.373.158V7.212c-.212-.068-.416-.13-.621-.206-.328-.117-.26-.406-.273-.688a.444.444 0 0 1 .28-.495 2.712 2.712 0 0 1 2.048 0c.307.124.266.385.273.64a.457.457 0 0 1-.287.522l-.594.193V8.21c.267 0 .52.041.765 0a.53.53 0 0 1 .505.268c.18.274.386.53.615.764a.64.64 0 0 0 .286.15h3.141a11.948 11.948 0 0 0-4.658-7.144A11.786 11.786 0 0 0 3.02 3.977 11.993 11.993 0 0 0 0 11.966v.062Z"/>
    </symbol>
    <symbol xmlns="http://www.w3.org/2000/svg" id="cart" fill="none" viewBox="0 0 40 40">
      <path fill="#fff" d="M30.765 24.78H13.991a1.198 1.198 0 0 1 0-2.397H26.5a3.594 3.594 0 0 0 3.486-2.72l1.977-7.78a1.198 1.198 0 0 0-.216-1.03 1.2 1.2 0 0 0-.982-.456H13.703A3.596 3.596 0 0 0 10.324 8H9.198a1.198 1.198 0 0 0 0 2.397h1.126a1.197 1.197 0 0 1 1.199.911l.072.575 2.072 8.103a3.598 3.598 0 0 0-3.432 3.758 3.6 3.6 0 0 0 3.756 3.433h.216a3.596 3.596 0 0 0 5.037 4.417 3.595 3.595 0 0 0 1.72-4.417h2.828a3.599 3.599 0 0 0 1.72 4.417 3.593 3.593 0 0 0 5.037-4.417h.216a1.198 1.198 0 1 0 0-2.397Zm-1.534-11.986-1.57 6.281a1.199 1.199 0 0 1-1.197.91h-10.34l-1.798-7.19h14.905Zm-11.646 16.78a1.198 1.198 0 1 1 0-2.396 1.198 1.198 0 0 1 0 2.397Zm9.586 0a1.198 1.198 0 1 1 0-2.395 1.198 1.198 0 0 1 0 2.396Z"/>
    </symbol>
    <symbol xmlns="http://www.w3.org/2000/svg" id="account" fill="none" viewBox="0 0 40 40">
      <path fill="#fff" d="M24.366 20.851a7.196 7.196 0 1 0-8.9 0 11.994 11.994 0 0 0-7.459 9.81 1.207 1.207 0 0 0 2.399.264 9.595 9.595 0 0 1 19.069 0 1.2 1.2 0 0 0 1.2 1.068h.131a1.2 1.2 0 0 0 1.055-1.32 11.994 11.994 0 0 0-7.495-9.822ZM19.916 20a4.797 4.797 0 1 1 0-9.595 4.797 4.797 0 0 1 0 9.595Z"/>
    </symbol>
    <symbol xmlns="http://www.w3.org/2000/svg" id="youtube" fill="none" viewBox="0 0 23 16">
      <path fill="#fff" d="M22.009 5.717a8.5 8.5 0 0 0-.91-4.13 2.92 2.92 0 0 0-1.72-1 78.36 78.36 0 0 0-8.37-.31 78.45 78.45 0 0 0-8.34.3 2.87 2.87 0 0 0-1.46.74c-.9.83-1 2.25-1.1 3.45a48.29 48.29 0 0 0 0 6.48 9.55 9.55 0 0 0 .3 2c.12.505.364.973.71 1.36a2.86 2.86 0 0 0 1.49.78c2.156.266 4.328.377 6.5.33 3.5.05 6.57 0 10.2-.28a2.879 2.879 0 0 0 1.53-.78c.28-.28.489-.623.61-1a10.58 10.58 0 0 0 .52-3.4c.04-.56.04-3.94.04-4.54Zm-13.26 5.14v-6.19l5.92 3.11c-1.66.92-3.85 1.96-5.92 3.08Z"/>
    </symbol>
    <symbol xmlns="http://www.w3.org/2000/svg" id="twitter" fill="none" viewBox="0 0 21 18">
      <path fill="#fff" d="M20.014 2.81a8.49 8.49 0 0 1-2.36.64 4.13 4.13 0 0 0 1.81-2.27c-.807.48-1.69.818-2.61 1a4.1 4.1 0 0 0-7 3.74 11.64 11.64 0 0 1-8.45-4.29 4.16 4.16 0 0 0-.55 2.07 4.09 4.09 0 0 0 1.82 3.41 4.05 4.05 0 0 1-1.86-.51v.05a4.1 4.1 0 0 0 3.3 4 3.933 3.933 0 0 1-1.1.17 4.896 4.896 0 0 1-.77-.07 4.11 4.11 0 0 0 3.83 2.84 8.22 8.22 0 0 1-6.06 1.7 11.57 11.57 0 0 0 6.29 1.85 11.59 11.59 0 0 0 11.71-11.68v-.53a8.431 8.431 0 0 0 2-2.12Z"/>
    </symbol>
    <symbol xmlns="http://www.w3.org/2000/svg" id="instagram" fill="none" viewBox="0 0 21 20">
      <path fill="#fff" d="M10.014 7.52a2.48 2.48 0 1 0 0 4.96 2.48 2.48 0 0 0 0-4.96Zm9.93-2.45a6.532 6.532 0 0 0-.42-2.26 4 4 0 0 0-2.32-2.32 6.53 6.53 0 0 0-2.26-.42C13.654 0 13.274 0 10.014 0s-3.64 0-4.93.07a6.53 6.53 0 0 0-2.26.42 4 4 0 0 0-2.32 2.32 6.53 6.53 0 0 0-.42 2.26C.014 6.36.014 6.74.014 10s0 3.64.07 4.93a6.86 6.86 0 0 0 .42 2.27c.2.526.51 1.004.91 1.4.398.402.88.713 1.41.91a6.532 6.532 0 0 0 2.26.42c1.29.07 1.67.07 4.93.07s3.64 0 4.93-.07a6.532 6.532 0 0 0 2.26-.42 3.89 3.89 0 0 0 1.41-.91c.4-.396.71-.874.91-1.4a6.603 6.603 0 0 0 .42-2.27c.07-1.29.07-1.67.07-4.93s0-3.64-.07-4.93Zm-2.54 8a5.73 5.73 0 0 1-.39 1.8 3.862 3.862 0 0 1-2.13 2.13 5.73 5.73 0 0 1-1.81.35h-6.12a5.73 5.73 0 0 1-1.81-.35 3.51 3.51 0 0 1-1.31-.86 3.51 3.51 0 0 1-.82-1.27 5.49 5.49 0 0 1-.34-1.81V6.94a5.49 5.49 0 0 1 .34-1.81 3.51 3.51 0 0 1 .86-1.31c.36-.36.793-.64 1.27-.82a5.73 5.73 0 0 1 1.81-.35h6.12a5.73 5.73 0 0 1 1.81.35 3.51 3.51 0 0 1 1.31.86c.362.359.642.792.82 1.27a5.73 5.73 0 0 1 .35 1.81V10c0 2.06.07 2.27.04 3.06v.01Zm-1.6-7.44a2.38 2.38 0 0 0-1.41-1.41 4 4 0 0 0-1.38-.22h-6a4 4 0 0 0-1.38.26 2.38 2.38 0 0 0-1.41 1.36A4.27 4.27 0 0 0 4.014 7v6c.01.471.097.938.26 1.38a2.38 2.38 0 0 0 1.41 1.41 4.27 4.27 0 0 0 1.33.26h6a4 4 0 0 0 1.38-.26 2.382 2.382 0 0 0 1.41-1.41c.167-.441.255-.908.26-1.38V7c0-.472-.088-.94-.26-1.38v.01Zm-5.79 8.19A3.81 3.81 0 0 1 6.204 10a3.82 3.82 0 1 1 3.81 3.82Zm4-6.89a.9.9 0 0 1 0-1.79.9.9 0 0 1 0 1.79Z"/>
    </symbol>
    <symbol xmlns="http://www.w3.org/2000/svg" id="facebook" fill="none" viewBox="0 0 21 20">
      <path fill="#fff" d="M18.914 0h-17.8a1.1 1.1 0 0 0-1.1 1.1v17.8a1.1 1.1 0 0 0 1.1 1.1h9.58v-7.75h-2.6v-3h2.6V7a3.64 3.64 0 0 1 3.88-4 20.26 20.26 0 0 1 2.33.12v2.7h-1.59c-1.26 0-1.5.6-1.5 1.47v1.93h3l-.39 3h-2.61V20h5.1a1.101 1.101 0 0 0 1.1-1.1V1.1a1.1 1.1 0 0 0-1.1-1.1Z"/>
    </symbol>
  </defs>
</svg>
