<svg>
<defs>

<symbol id="Logotype"  viewBox="0 0 154 24" fill="#ffffff" xmlns="http://www.w3.org/2000/svg">
<path d="M29.9045 12.9147C29.9045 7.98264 33.1476 5.12109 36.8754 5.12109C37.7054 5.12685 38.5258 5.30027 39.2881 5.63109C40.0504 5.96192 40.739 6.44343 41.3133 7.04713L39.5587 9.20705C38.8875 8.48434 37.9596 8.05893 36.9779 8.02391C34.9296 8.02391 33.3524 9.81926 33.3524 12.839C33.3524 15.8588 34.7657 17.6541 36.9232 17.6541C37.4741 17.645 38.0166 17.5176 38.5147 17.2804C39.0127 17.0431 39.4548 16.7015 39.8113 16.2784L41.5728 18.3901C40.9891 19.0915 40.2568 19.6521 39.4297 20.0306C38.6026 20.4092 37.7018 20.5961 36.7935 20.5776C33.0315 20.5432 29.9045 17.9224 29.9045 12.9147Z" fill="white"/>
<path d="M42.4395 14.6071C42.4395 10.9408 45.0407 8.67078 47.7376 8.67078C50.9397 8.67078 52.5169 11.0164 52.5169 14.105C52.5182 14.6035 52.4725 15.101 52.3803 15.5908H45.6279C45.7201 16.2876 46.0735 16.9225 46.6156 17.3651C47.1578 17.8077 47.8475 18.0244 48.5433 17.9708C49.406 17.9542 50.2473 17.697 50.9739 17.2279L52.0731 19.2502C50.897 20.0608 49.5106 20.5056 48.0858 20.5297C44.8837 20.5434 42.4395 18.356 42.4395 14.6071ZM49.6835 13.3689C49.6835 12.1239 49.1441 11.2297 47.8127 11.2297C46.7613 11.2297 45.8532 11.9175 45.6279 13.3689H49.6835Z" fill="white"/>
<path d="M53.8824 8.94575H56.6135L56.8388 10.404H56.9207C57.3803 9.89251 57.9363 9.47824 58.5564 9.18536C59.1765 8.89248 59.8482 8.72685 60.5325 8.69812C62.9767 8.69812 64.0213 10.4384 64.0213 13.2656V20.2681H60.6895V13.6645C60.6895 12.0412 60.2594 11.5253 59.324 11.5253C58.4842 11.5253 57.9585 11.9242 57.2757 12.6259V20.2681H53.8824V8.94575Z" fill="white"/>
<path d="M66.8415 16.1477V11.5802H65.3053V9.07639L67.0258 8.94569L67.415 5.9397H70.146V8.94569H72.877V11.5802H70.146V16.1133C70.146 17.3928 70.7264 17.9087 71.6003 17.9087C71.9665 17.895 72.3283 17.823 72.6722 17.6954L73.1979 20.1305C72.3925 20.4029 71.5486 20.5423 70.6991 20.5432C67.9407 20.5432 66.8415 18.7754 66.8415 16.1477Z" fill="white"/>
<path d="M74.6115 8.94592H77.3425L77.5814 10.927H77.6634C78.4827 9.41368 79.7116 8.67078 80.8518 8.67078C81.318 8.64412 81.7843 8.72164 82.2173 8.89777L81.6301 11.78C81.2345 11.6675 80.8259 11.6073 80.4148 11.6011C79.5682 11.6011 78.5373 12.1514 77.9365 13.6647V20.227H74.6115V8.94592Z" fill="white"/>
<path d="M82.4762 17.1247C82.4762 14.7378 84.3538 13.4515 88.7985 12.9975C88.8109 12.7659 88.7722 12.5345 88.6852 12.3198C88.5981 12.1051 88.4649 11.9126 88.2951 11.756C88.1254 11.5994 87.9232 11.4827 87.7033 11.4143C87.4834 11.3459 87.2512 11.3275 87.0233 11.3604C85.9756 11.4368 84.9648 11.7826 84.0875 12.3646L82.8995 10.1635C84.3243 9.22879 85.9791 8.71196 87.6788 8.67078C90.5531 8.67078 92.144 10.3217 92.144 13.7954V20.2683H89.413L89.174 19.1058H89.0921C88.2176 19.9785 87.0514 20.4912 85.8217 20.5434C85.374 20.5592 84.928 20.4812 84.5119 20.3143C84.0957 20.1475 83.7185 19.8954 83.404 19.574C83.0895 19.2527 82.8447 18.8691 82.685 18.4475C82.5253 18.0259 82.4542 17.5754 82.4762 17.1247ZM88.7985 16.9803V14.9992C86.4362 15.3225 85.6646 16.0035 85.6646 16.8564C85.6646 17.5856 86.1562 17.9433 86.9482 17.9433C87.3069 17.9249 87.6576 17.8295 87.9767 17.6634C88.2958 17.4973 88.576 17.2644 88.7985 16.9803Z" fill="white"/>
<path d="M94.473 16.7463V4.2821H97.8049V16.8839C97.8049 17.5718 98.1326 17.8332 98.4057 17.8332C98.5439 17.8381 98.682 17.8219 98.8153 17.785L99.2113 20.2613C98.6778 20.4661 98.1092 20.562 97.5386 20.5434C95.2582 20.5434 94.473 19.0369 94.473 16.7463Z" fill="white"/>
<path d="M102.045 4.73608H104.407L107.363 13.0387C107.732 14.098 108.087 15.1917 108.456 16.2717H108.551C108.92 15.1917 109.234 14.098 109.616 13.0387L112.538 4.73608H114.901V20.2682H113.078V11.718C113.078 10.3422 113.228 8.49874 113.324 7.123H113.228L112.006 10.6655L109.104 18.6999H107.807L104.892 10.6655L103.669 7.123H103.574C103.67 8.49874 103.82 10.3629 103.82 11.718V20.2682H102.045V4.73608Z" fill="white"/>
<path d="M117.844 16.0515V8.76697H119.776V15.8039C119.776 17.9432 120.425 18.858 121.933 18.858C123.101 18.858 123.907 18.2802 124.985 16.9251V8.76697H126.918V20.2682H125.327L125.163 18.466H125.095C124.036 19.7179 122.896 20.5296 121.333 20.5296C118.909 20.5502 117.844 18.9887 117.844 16.0515Z" fill="white"/>
<path d="M129.04 18.9544L129.989 17.675C130.91 18.5308 132.109 19.0198 133.362 19.0507C134.857 19.0507 135.601 18.2459 135.601 17.2623C135.601 16.0791 134.236 15.5563 132.993 15.0817C131.396 14.497 129.579 13.706 129.579 11.7593C129.579 9.92267 131.041 8.49878 133.512 8.49878C134.804 8.51876 136.053 8.9713 137.062 9.7851L136.141 11.037C135.409 10.4128 134.491 10.0522 133.533 10.0121C132.099 10.0121 131.437 10.7825 131.437 11.663C131.437 12.7567 132.672 13.1694 133.97 13.6578C135.615 14.2838 137.452 14.9579 137.452 17.1453C137.452 19.0095 135.977 20.5847 133.287 20.5847C131.729 20.5425 130.231 19.9676 129.04 18.9544Z" fill="white"/>
<path d="M139.322 5.14195C139.388 4.83456 139.556 4.55917 139.799 4.36165C140.042 4.16413 140.345 4.0564 140.657 4.0564C140.969 4.0564 141.272 4.16413 141.515 4.36165C141.758 4.55917 141.926 4.83456 141.992 5.14195C141.926 5.44933 141.758 5.72472 141.515 5.92224C141.272 6.11976 140.969 6.22749 140.657 6.22749C140.345 6.22749 140.042 6.11976 139.799 5.92224C139.556 5.72472 139.388 5.44933 139.322 5.14195ZM139.677 8.76703H141.603V20.2682H139.677V8.76703Z" fill="white"/>
<path d="M144.17 14.5314C144.17 10.6931 146.744 8.48499 149.632 8.48499C150.881 8.4866 152.079 8.98039 152.971 9.86073L151.974 11.092C151.381 10.4699 150.57 10.1048 149.714 10.074C147.666 10.074 146.13 11.8693 146.13 14.5039C146.13 17.1384 147.564 18.8994 149.66 18.8994C150.665 18.8715 151.627 18.4753 152.363 17.785L153.196 19.0851C152.189 20.0145 150.876 20.5362 149.51 20.5502C146.451 20.5502 144.17 18.3422 144.17 14.5314Z" fill="white"/>
<path d="M4.01068e-05 12.0275C-0.00756741 14.9753 1.06732 17.8218 3.01782 20.0191C4.96832 22.2164 7.65657 23.6091 10.5652 23.9293C13.4738 24.2495 16.3971 23.4745 18.7726 21.7534C21.148 20.0324 22.8077 17.4869 23.4321 14.607H20.2914C20.1835 14.629 20.0841 14.6815 20.0047 14.7583C19.7759 14.9923 19.5701 15.248 19.3902 15.5219C19.34 15.6103 19.2658 15.6825 19.1763 15.73C19.0868 15.7775 18.9858 15.7984 18.885 15.7901C18.6392 15.7901 18.3866 15.7901 18.1203 15.8245V16.8563C18.3115 16.9182 18.5163 16.9733 18.7143 17.0489C18.8168 17.0864 18.9023 17.16 18.955 17.2561C19.0077 17.3523 19.0241 17.4644 19.001 17.5717C19.001 17.8262 19.001 18.0876 18.7279 18.2114C18.071 18.4792 17.3366 18.4792 16.6797 18.2114C16.5823 18.1757 16.5007 18.1063 16.4494 18.0156C16.3982 17.9249 16.3806 17.8188 16.3998 17.7162C16.3998 17.4548 16.3451 17.1659 16.6729 17.0283C16.8777 16.9526 17.0825 16.8907 17.2942 16.8219V15.8589L13.9214 16.0171V16.8632L14.0101 16.9045C14.7475 17.1246 14.6314 17.2622 14.6041 17.9294C14.6041 18.0463 14.4129 18.2046 14.2764 18.2665C13.7938 18.4581 13.257 18.4581 12.7743 18.2665C12.3647 18.1289 12.4261 17.7918 12.4125 17.4754C12.4055 17.3565 12.4419 17.2391 12.5149 17.1454C12.5878 17.0517 12.6922 16.988 12.8085 16.9664C12.9068 16.9268 13.0071 16.8924 13.1089 16.8632V16.0378L9.82485 16.1891V16.877L10.0433 16.9389C10.8012 17.1384 10.6851 17.3103 10.6578 17.9088C10.6578 18.0257 10.5076 18.177 10.3915 18.2321C10.0805 18.3649 9.74617 18.4333 9.40837 18.4333C9.07057 18.4333 8.73622 18.3649 8.4252 18.2321C8.09066 18.1014 8.15893 17.8056 8.14528 17.5442C8.13074 17.4411 8.15295 17.3362 8.20795 17.248C8.26295 17.1599 8.34718 17.0942 8.44569 17.0627C8.63003 16.987 8.81437 16.9389 9.01237 16.877V16.2579L5.03875 16.4505V7.65262L9.01237 7.84522V7.22614C8.81437 7.16423 8.63003 7.11608 8.44569 7.04041C8.34718 7.00891 8.26295 6.94324 8.20795 6.85509C8.15295 6.76693 8.13074 6.66199 8.14528 6.5589C8.14528 6.29063 8.09066 5.99485 8.4252 5.87103C8.73582 5.73667 9.07033 5.66738 9.40837 5.66738C9.74641 5.66738 10.0809 5.73667 10.3915 5.87103C10.5076 5.92606 10.6578 6.07739 10.6578 6.18745C10.6578 6.79278 10.8012 6.96475 10.0433 7.16423L9.82485 7.22614V7.91401L13.1089 8.06534V7.23989L12.8085 7.13671C12.6922 7.11511 12.5878 7.05145 12.5149 6.9577C12.4419 6.86396 12.4055 6.74659 12.4125 6.62769C12.4125 6.30439 12.3647 5.97421 12.7743 5.83664C13.257 5.645 13.7938 5.645 14.2764 5.83664C14.4129 5.89854 14.5973 6.05676 14.6041 6.17369C14.6041 6.86156 14.7475 6.97162 14.0101 7.19862L13.9214 7.23989V8.08597L17.2942 8.24419V7.21238C17.0825 7.14359 16.8777 7.08168 16.6729 7.00602C16.3451 6.88908 16.4134 6.60017 16.3998 6.31815C16.3806 6.21556 16.3982 6.10943 16.4494 6.01871C16.5007 5.928 16.5823 5.85859 16.6797 5.82288C17.3366 5.55516 18.071 5.55516 18.7279 5.82288C19.0352 5.9467 18.9942 6.20809 19.001 6.4626C19.0241 6.56994 19.0077 6.68207 18.955 6.77819C18.9023 6.87432 18.8168 6.94793 18.7143 6.98538L18.1203 7.17798V8.20979C18.3866 8.20979 18.6392 8.25106 18.885 8.20979C18.9858 8.20156 19.0868 8.22241 19.1763 8.26992C19.2658 8.31743 19.34 8.38963 19.3902 8.47806C19.5701 8.75195 19.7759 9.00765 20.0047 9.2416C20.0859 9.3159 20.1846 9.368 20.2914 9.39293H23.4321C22.8078 6.5136 21.1487 3.96859 18.7739 2.24755C16.3992 0.526505 13.4767 -0.248975 10.5686 0.0703076C7.66049 0.38959 4.97232 1.78108 3.02128 3.97705C1.07023 6.17303 -0.00586277 9.01834 4.01068e-05 11.9656V12.0275Z" fill="white"/>
</symbol>
<symbol id="cart" viewBox="0 0 40 40" fill="none" xmlns="http://www.w3.org/2000/svg">
<path d="M30.765 24.7803H13.9908C13.673 24.7803 13.3683 24.654 13.1436 24.4292C12.9189 24.2044 12.7926 23.8996 12.7926 23.5817C12.7926 23.2638 12.9189 22.9589 13.1436 22.7341C13.3683 22.5094 13.673 22.3831 13.9908 22.3831H26.4996C27.3007 22.3831 28.0789 22.1154 28.7106 21.6225C29.3423 21.1296 29.7913 20.4396 29.9862 19.6623L31.9632 11.8834C32.0081 11.7065 32.012 11.5217 31.9746 11.3431C31.9372 11.1644 31.8595 10.9967 31.7475 10.8526C31.631 10.7049 31.4813 10.5867 31.3106 10.5075C31.14 10.4284 30.953 10.3906 30.765 10.3972H13.7032C13.456 9.69774 12.9986 9.09191 12.3937 8.66275C11.7888 8.23358 11.066 8.00208 10.3244 8H9.19816C8.88039 8 8.57563 8.12628 8.35093 8.35106C8.12623 8.57584 8 8.8807 8 9.19859C8 9.51648 8.12623 9.82134 8.35093 10.0461C8.57563 10.2709 8.88039 10.3972 9.19816 10.3972H10.3244C10.5981 10.3892 10.8663 10.4752 11.0843 10.641C11.3023 10.8067 11.457 11.0422 11.5226 11.3081L11.5945 11.8834L13.6673 19.9859C12.714 20.0288 11.8168 20.4488 11.173 21.1535C10.5292 21.8582 10.1917 22.7898 10.2346 23.7435C10.2775 24.6971 10.6973 25.5947 11.4017 26.2387C12.1062 26.8827 13.0375 27.2204 13.9908 27.1774H14.2065C14.0094 27.7206 13.9461 28.3032 14.0219 28.876C14.0976 29.4488 14.3103 29.9949 14.6418 30.468C14.9733 30.9411 15.4139 31.3274 15.9262 31.5941C16.4386 31.8608 17.0077 32 17.5853 32C18.1629 32 18.7319 31.8608 19.2443 31.5941C19.7567 31.3274 20.1973 30.9411 20.5288 30.468C20.8603 29.9949 21.0729 29.4488 21.1487 28.876C21.2245 28.3032 21.1611 27.7206 20.9641 27.1774H23.7917C23.5947 27.7206 23.5314 28.3032 23.6071 28.876C23.6829 29.4488 23.8956 29.9949 24.2271 30.468C24.5586 30.9411 24.9991 31.3274 25.5115 31.5941C26.0239 31.8608 26.593 32 27.1706 32C27.7481 32 28.3172 31.8608 28.8296 31.5941C29.342 31.3274 29.7826 30.9411 30.114 30.468C30.4455 29.9949 30.6582 29.4488 30.734 28.876C30.8097 28.3032 30.7464 27.7206 30.5494 27.1774H30.765C31.0828 27.1774 31.3876 27.0512 31.6123 26.8264C31.837 26.6016 31.9632 26.2967 31.9632 25.9789C31.9632 25.661 31.837 25.3561 31.6123 25.1313C31.3876 24.9065 31.0828 24.7803 30.765 24.7803ZM29.2314 12.7944L27.6618 19.075C27.5962 19.3409 27.4415 19.5764 27.2235 19.7421C27.0055 19.9078 26.7373 19.9939 26.4636 19.9859H16.1235L14.3263 12.7944H29.2314ZM17.5853 29.5746C17.3483 29.5746 17.1167 29.5043 16.9196 29.3726C16.7226 29.2409 16.569 29.0537 16.4783 28.8347C16.3876 28.6157 16.3639 28.3747 16.4101 28.1422C16.4564 27.9097 16.5705 27.6961 16.7381 27.5285C16.9056 27.3609 17.1191 27.2467 17.3515 27.2005C17.5839 27.1542 17.8249 27.178 18.0438 27.2687C18.2627 27.3594 18.4499 27.513 18.5815 27.7101C18.7132 27.9072 18.7834 28.139 18.7834 28.376C18.7834 28.6939 18.6572 28.9988 18.4325 29.2236C18.2078 29.4483 17.903 29.5746 17.5853 29.5746ZM27.1706 29.5746C26.9336 29.5746 26.7019 29.5043 26.5049 29.3726C26.3079 29.2409 26.1543 29.0537 26.0636 28.8347C25.9729 28.6157 25.9492 28.3747 25.9954 28.1422C26.0416 27.9097 26.1558 27.6961 26.3233 27.5285C26.4909 27.3609 26.7044 27.2467 26.9368 27.2005C27.1692 27.1542 27.4101 27.178 27.6291 27.2687C27.848 27.3594 28.0351 27.513 28.1668 27.7101C28.2984 27.9072 28.3687 28.139 28.3687 28.376C28.3687 28.6939 28.2425 28.9988 28.0178 29.2236C27.7931 29.4483 27.4883 29.5746 27.1706 29.5746Z" fill="white"/>
</symbol>
<symbol id='account' viewBox="0 0 40 40" fill="none" xmlns="http://www.w3.org/2000/svg">
<path d="M24.3658 20.8512C25.5416 19.9261 26.3998 18.6576 26.8211 17.222C27.2423 15.7865 27.2057 14.2553 26.7162 12.8416C26.2267 11.4278 25.3088 10.2018 24.09 9.33405C22.8713 8.46631 21.4124 8 19.9164 8C18.4203 8 16.9614 8.46631 15.7427 9.33405C14.524 10.2018 13.606 11.4278 13.1165 12.8416C12.6271 14.2553 12.5904 15.7865 13.0117 17.222C13.4329 18.6576 14.2911 19.9261 15.4669 20.8512C13.4522 21.6584 11.6943 22.9972 10.3805 24.7249C9.06682 26.4525 8.24657 28.5043 8.00723 30.6615C7.98991 30.819 8.00378 30.9784 8.04804 31.1305C8.09231 31.2827 8.1661 31.4246 8.26522 31.5482C8.46539 31.7979 8.75654 31.9578 9.07462 31.9928C9.3927 32.0277 9.71164 31.9349 9.9613 31.7348C10.211 31.5346 10.3709 31.2435 10.4059 30.9254C10.6692 28.581 11.7871 26.4158 13.5459 24.8434C15.3047 23.2711 17.5812 22.4019 19.9404 22.4019C22.2995 22.4019 24.576 23.2711 26.3348 24.8434C28.0936 26.4158 29.2115 28.581 29.4749 30.9254C29.5075 31.2201 29.6481 31.4922 29.8696 31.6894C30.091 31.8865 30.3777 31.9946 30.6742 31.9928H30.8061C31.1205 31.9566 31.4078 31.7976 31.6055 31.5505C31.8032 31.3034 31.8952 30.9882 31.8615 30.6735C31.621 28.5102 30.7963 26.4531 29.4759 24.7228C28.1554 22.9925 26.3889 21.6541 24.3658 20.8512ZM19.9164 19.9997C18.9676 19.9997 18.0401 19.7183 17.2512 19.1912C16.4623 18.6641 15.8474 17.9148 15.4843 17.0383C15.1212 16.1617 15.0262 15.1971 15.2113 14.2665C15.3964 13.336 15.8533 12.4812 16.5242 11.8103C17.1951 11.1394 18.0499 10.6825 18.9805 10.4974C19.911 10.3123 20.8756 10.4073 21.7522 10.7704C22.6288 11.1335 23.378 11.7483 23.9051 12.5372C24.4322 13.3261 24.7136 14.2536 24.7136 15.2024C24.7136 16.4747 24.2082 17.6949 23.3085 18.5946C22.4089 19.4943 21.1887 19.9997 19.9164 19.9997Z" fill="white"/>
</symbol>
<symbol id="youtube"  viewBox="0 0 23 16" fill="none" xmlns="http://www.w3.org/2000/svg">
  <path d="M22.0088 5.71731C22.0583 4.28596 21.7452 2.86533 21.0988 1.58731C20.6602 1.06291 20.0515 0.709018 19.3788 0.587308C16.5963 0.334834 13.8023 0.231352 11.0088 0.277308C8.22546 0.229267 5.44152 0.329408 2.66882 0.577308C2.12064 0.677025 1.61333 0.93415 1.20882 1.31731C0.308816 2.14731 0.208816 3.56731 0.108816 4.76731C-0.036272 6.92487 -0.036272 9.08974 0.108816 11.2473C0.137746 11.9227 0.23831 12.5931 0.408816 13.2473C0.529391 13.7524 0.773339 14.2197 1.11882 14.6073C1.52608 15.0108 2.0452 15.2825 2.60882 15.3873C4.76473 15.6534 6.93703 15.7637 9.10882 15.7173C12.6088 15.7673 15.6788 15.7173 19.3088 15.4373C19.8863 15.339 20.42 15.0669 20.8388 14.6573C21.1188 14.3772 21.3279 14.0344 21.4488 13.6573C21.8064 12.5599 21.9821 11.4114 21.9688 10.2573C22.0088 9.69731 22.0088 6.31731 22.0088 5.71731ZM8.74882 10.8573V4.66731L14.6688 7.77731C13.0088 8.69731 10.8188 9.73731 8.74882 10.8573Z" fill="white" />
</symbol>
<symbol id="twitter" viewBox="0 0 21 18" fill="none" xmlns="http://www.w3.org/2000/svg">
  <path d="M20.0137 2.80998C19.262 3.13607 18.4671 3.35164 17.6537 3.44998C18.5118 2.9373 19.1549 2.13076 19.4637 1.17998C18.6572 1.66004 17.7744 1.99827 16.8537 2.17998C16.2382 1.51255 15.4186 1.06827 14.5235 0.916827C13.6283 0.765382 12.7082 0.915334 11.9075 1.34316C11.1067 1.771 10.4706 2.45251 10.0989 3.28081C9.72722 4.10912 9.64096 5.03736 9.85367 5.91997C8.2231 5.8375 6.62811 5.41293 5.17233 4.67384C3.71654 3.93475 2.43252 2.89767 1.40367 1.62998C1.04281 2.26014 0.853191 2.9738 0.853672 3.69998C0.852392 4.37436 1.01789 5.03859 1.33543 5.63354C1.65297 6.22849 2.11269 6.73569 2.67367 7.10998C2.02165 7.09223 1.38356 6.91727 0.813672 6.59998V6.64998C0.818559 7.59487 1.14967 8.50907 1.75099 9.23794C2.35231 9.96681 3.18693 10.4656 4.11367 10.65C3.75693 10.7585 3.38655 10.8158 3.01367 10.82C2.75556 10.817 2.49809 10.7936 2.24367 10.75C2.50758 11.5628 3.01829 12.2731 3.70475 12.7821C4.3912 13.2911 5.21925 13.5735 6.07367 13.59C4.63087 14.7252 2.84956 15.3448 1.01367 15.35C0.679407 15.3511 0.345407 15.331 0.0136719 15.29C1.8881 16.5002 4.07248 17.1427 6.30367 17.14C7.84336 17.156 9.37081 16.865 10.7968 16.2841C12.2228 15.7031 13.5187 14.8439 14.6089 13.7565C15.6991 12.6691 16.5616 11.3754 17.1462 9.95088C17.7308 8.5264 18.0257 6.9997 18.0137 5.45997C18.0137 5.28997 18.0137 5.10997 18.0137 4.92998C18.7984 4.34479 19.4751 3.6274 20.0137 2.80998Z" fill="white" />
</symbol>
<symbol id="instagram" viewBox="0 0 21 20" fill="none" xmlns="http://www.w3.org/2000/svg">
  <path d="M10.0137 7.52C9.52317 7.52 9.04369 7.66545 8.63586 7.93795C8.22802 8.21046 7.91016 8.59778 7.72245 9.05095C7.53474 9.50411 7.48563 10.0028 7.58132 10.4838C7.67702 10.9649 7.91321 11.4068 8.26005 11.7536C8.60688 12.1005 9.04877 12.3367 9.52985 12.4323C10.0109 12.528 10.5096 12.4789 10.9627 12.2912C11.4159 12.1035 11.8032 11.7856 12.0757 11.3778C12.3482 10.97 12.4937 10.4905 12.4937 10C12.4937 9.67432 12.4295 9.35183 12.3049 9.05095C12.1803 8.75006 11.9976 8.47666 11.7673 8.24638C11.537 8.01609 11.2636 7.83341 10.9627 7.70878C10.6618 7.58415 10.3393 7.52 10.0137 7.52ZM19.9437 5.07C19.9384 4.29776 19.7962 3.53257 19.5237 2.81C19.323 2.28126 19.0124 1.80109 18.6125 1.40119C18.2126 1.00128 17.7324 0.690718 17.2037 0.49C16.4811 0.217464 15.7159 0.0752609 14.9437 0.0699999C13.6537 -6.70552e-08 13.2737 0 10.0137 0C6.75367 0 6.37367 -6.70552e-08 5.08367 0.0699999C4.31143 0.0752609 3.54624 0.217464 2.82367 0.49C2.29493 0.690718 1.81477 1.00128 1.41486 1.40119C1.01495 1.80109 0.704389 2.28126 0.503672 2.81C0.231136 3.53257 0.0889328 4.29776 0.0836718 5.07C0.0136718 6.36 0.0136719 6.74 0.0136719 10C0.0136719 13.26 0.0136718 13.64 0.0836718 14.93C0.0944358 15.705 0.236446 16.4725 0.503672 17.2C0.7035 17.7263 1.0138 18.2037 1.41367 18.6C1.81187 19.0023 2.29306 19.3129 2.82367 19.51C3.54624 19.7825 4.31143 19.9247 5.08367 19.93C6.37367 20 6.75367 20 10.0137 20C13.2737 20 13.6537 20 14.9437 19.93C15.7159 19.9247 16.4811 19.7825 17.2037 19.51C17.7343 19.3129 18.2155 19.0023 18.6137 18.6C19.0135 18.2037 19.3238 17.7263 19.5237 17.2C19.7959 16.4739 19.9381 15.7055 19.9437 14.93C20.0137 13.64 20.0137 13.26 20.0137 10C20.0137 6.74 20.0137 6.36 19.9437 5.07ZM17.4037 13.07C17.3716 13.6871 17.2399 14.295 17.0137 14.87C16.8195 15.3497 16.5309 15.7854 16.165 16.1514C15.7991 16.5173 15.3634 16.8059 14.8837 17C14.3032 17.2136 13.6919 17.3318 13.0737 17.35C12.2837 17.35 12.0737 17.35 10.0137 17.35C7.95367 17.35 7.74367 17.35 6.95367 17.35C6.3354 17.3318 5.72416 17.2136 5.14367 17C4.64778 16.8157 4.19995 16.5217 3.83367 16.14C3.47134 15.7813 3.19152 15.3479 3.01367 14.87C2.79923 14.2901 2.68428 13.6782 2.67367 13.06C2.67367 12.27 2.67367 12.06 2.67367 10C2.67367 7.94 2.67367 7.73 2.67367 6.94C2.68428 6.32183 2.79923 5.70988 3.01367 5.13C3.19795 4.6341 3.49195 4.18628 3.87367 3.82C4.23401 3.45962 4.66694 3.18009 5.14367 3C5.72416 2.78641 6.3354 2.66821 6.95367 2.65C7.74367 2.65 7.95367 2.65 10.0137 2.65C12.0737 2.65 12.2837 2.65 13.0737 2.65C13.6919 2.66821 14.3032 2.78641 14.8837 3C15.3796 3.18428 15.8274 3.47827 16.1937 3.86C16.556 4.21875 16.8358 4.65213 17.0137 5.13C17.2273 5.71049 17.3455 6.32173 17.3637 6.94C17.3637 7.73 17.3637 7.94 17.3637 10C17.3637 12.06 17.4337 12.27 17.4037 13.06V13.07ZM15.8037 5.63C15.6846 5.30698 15.4969 5.01364 15.2535 4.77021C15.01 4.52678 14.7167 4.33906 14.3937 4.22C13.9501 4.06626 13.483 3.99179 13.0137 4C12.2337 4 12.0137 4 10.0137 4C8.01367 4 7.79367 4 7.01367 4C6.54194 4.00461 6.07474 4.09263 5.63367 4.26C5.3156 4.37366 5.02536 4.55371 4.78226 4.7882C4.53915 5.02269 4.34873 5.30624 4.22367 5.62C4.07845 6.06537 4.0075 6.5316 4.01367 7C4.01367 7.78 4.01367 8 4.01367 10C4.01367 12 4.01367 12.22 4.01367 13C4.02359 13.4712 4.11144 13.9375 4.27367 14.38C4.39274 14.703 4.58046 14.9964 4.82389 15.2398C5.06731 15.4832 5.36066 15.6709 5.68367 15.79C6.11034 15.9469 6.55932 16.0347 7.01367 16.05C7.79367 16.05 8.01367 16.05 10.0137 16.05C12.0137 16.05 12.2337 16.05 13.0137 16.05C13.4854 16.0454 13.9526 15.9574 14.3937 15.79C14.7167 15.6709 15.01 15.4832 15.2535 15.2398C15.4969 14.9964 15.6846 14.703 15.8037 14.38C15.971 13.9389 16.0591 13.4717 16.0637 13C16.0637 12.22 16.0637 12 16.0637 10C16.0637 8 16.0637 7.78 16.0637 7C16.064 6.5278 15.9758 6.05972 15.8037 5.62V5.63ZM10.0137 13.82C9.51249 13.82 9.01624 13.7211 8.55333 13.529C8.09043 13.3369 7.66998 13.0554 7.31605 12.7005C6.96213 12.3457 6.6817 11.9245 6.49082 11.4611C6.29993 10.9977 6.20236 10.5012 6.20367 10C6.20367 9.24405 6.42797 8.5051 6.84816 7.87669C7.26835 7.24828 7.86554 6.75866 8.56414 6.46983C9.26274 6.181 10.0313 6.10594 10.7726 6.25415C11.5139 6.40236 12.1945 6.76717 12.7284 7.30241C13.2622 7.83764 13.6252 8.51924 13.7715 9.2609C13.9178 10.0026 13.8407 10.771 13.55 11.4688C13.2594 12.1666 12.7682 12.7625 12.1387 13.1811C11.5092 13.5996 10.7696 13.822 10.0137 13.82ZM14.0137 6.93C13.7926 6.9066 13.588 6.80222 13.4394 6.63697C13.2907 6.47172 13.2084 6.25729 13.2084 6.035C13.2084 5.81271 13.2907 5.59828 13.4394 5.43303C13.588 5.26778 13.7926 5.1634 14.0137 5.14C14.2347 5.1634 14.4393 5.26778 14.588 5.43303C14.7367 5.59828 14.8189 5.81271 14.8189 6.035C14.8189 6.25729 14.7367 6.47172 14.588 6.63697C14.4393 6.80222 14.2347 6.9066 14.0137 6.93Z" fill="white" />
</symbol>
<symbol id='facebook' viewBox="0 0 21 20" fill="none" xmlns="http://www.w3.org/2000/svg">
  <path d="M18.9137 0H1.11367C0.821934 0 0.542145 0.115893 0.335855 0.322183C0.129565 0.528473 0.0136719 0.808262 0.0136719 1.1V18.9C0.0136719 19.0445 0.0421243 19.1875 0.0974045 19.321C0.152685 19.4544 0.23371 19.5757 0.335855 19.6778C0.437999 19.78 0.559262 19.861 0.69272 19.9163C0.826178 19.9715 0.969218 20 1.11367 20H10.6937V12.25H8.09367V9.25H10.6937V7C10.6398 6.47176 10.7022 5.93813 10.8764 5.43654C11.0506 4.93495 11.3324 4.47755 11.7021 4.09641C12.0718 3.71528 12.5204 3.41964 13.0165 3.23024C13.5126 3.04083 14.044 2.96225 14.5737 3C15.352 2.99521 16.13 3.03528 16.9037 3.12V5.82H15.3137C14.0537 5.82 13.8137 6.42 13.8137 7.29V9.22H16.8137L16.4237 12.22H13.8137V20H18.9137C19.0581 20 19.2012 19.9715 19.3346 19.9163C19.4681 19.861 19.5893 19.78 19.6915 19.6778C19.7936 19.5757 19.8747 19.4544 19.9299 19.321C19.9852 19.1875 20.0137 19.0445 20.0137 18.9V1.1C20.0137 0.955546 19.9852 0.812506 19.9299 0.679048C19.8747 0.54559 19.7936 0.424327 19.6915 0.322183C19.5893 0.220038 19.4681 0.139013 19.3346 0.0837326C19.2012 0.0284524 19.0581 0 18.9137 0Z" fill="white" />
</symbol>
</defs>
</svg>